<svg xmlns="http://www.w3.org/2000/svg" xmlns:xlink="http://www.w3.org/1999/xlink" width="500" zoomAndPan="magnify" viewBox="0 0 375 374.999991" height="500" preserveAspectRatio="xMidYMid meet" version="1.0"><defs><g/><clipPath id="aef9ade943"><path d="M 187.5 375 C 137.441406 375 90.304688 355.515625 54.929688 320.070312 C 19.484375 284.695312 0 237.558594 0 187.5 C 0 137.441406 19.484375 90.304688 54.929688 54.929688 C 90.304688 19.484375 137.441406 0 187.5 0 C 237.558594 0 284.695312 19.484375 320.070312 54.929688 C 355.515625 90.378906 375 137.441406 375 187.5 C 375 237.558594 355.515625 284.695312 320.070312 320.070312 C 284.695312 355.515625 237.558594 375 187.5 375 Z M 187.5 11.242188 C 140.4375 11.242188 96.148438 29.601562 62.875 62.875 C 29.601562 96.148438 11.242188 140.4375 11.242188 187.5 C 11.242188 234.5625 29.601562 278.851562 62.875 312.125 C 96.148438 345.398438 140.4375 363.757812 187.5 363.757812 C 234.5625 363.757812 278.851562 345.398438 312.125 312.125 C 345.398438 278.851562 363.757812 234.5625 363.757812 187.5 C 363.757812 140.4375 345.398438 96.148438 312.125 62.875 C 278.851562 29.601562 234.5625 11.242188 187.5 11.242188 Z M 187.5 11.242188 " clip-rule="nonzero"/></clipPath><clipPath id="8f7babaf1c"><path d="M 31.433594 126.332031 L 343.203125 126.332031 L 343.203125 259.328125 L 31.433594 259.328125 Z M 31.433594 126.332031 " clip-rule="nonzero"/></clipPath><clipPath id="a8904118b6"><path d="M 156 103.289062 L 219 103.289062 L 219 165 L 156 165 Z M 156 103.289062 " clip-rule="nonzero"/></clipPath><clipPath id="a17df7fd7e"><path d="M 78.597656 140.984375 L 296.402344 140.984375 L 296.402344 271.710938 L 78.597656 271.710938 Z M 78.597656 140.984375 " clip-rule="nonzero"/></clipPath></defs><g clip-path="url(#aef9ade943)"><rect x="-37.5" width="450" fill="#ffffff" y="-37.499999" height="449.999989" fill-opacity="1"/></g><g clip-path="url(#8f7babaf1c)"><path fill="#ffffff" d="M 333.90625 229.109375 C 329.949219 242.582031 323.90625 255.363281 316.410156 267.136719 C 310.21875 276.714844 303.183594 285.71875 295.273438 293.90625 C 294.25 295.027344 293.109375 296.027344 292.023438 297.082031 C 290.917969 298.121094 289.84375 299.191406 288.71875 300.203125 L 285.289062 303.183594 L 283.574219 304.675781 L 281.796875 306.089844 L 278.246094 308.925781 C 277.042969 309.847656 275.800781 310.714844 274.582031 311.617188 C 272.175781 313.460938 269.613281 315.082031 267.105469 316.785156 C 266.742188 317.03125 266.363281 317.285156 265.96875 317.550781 C 265.558594 317.796875 265.132812 318.050781 264.691406 318.316406 C 263.804688 318.847656 262.851562 319.417969 261.839844 320.023438 C 259.835938 321.28125 257.464844 322.464844 254.90625 323.828125 C 254.261719 324.160156 253.617188 324.523438 252.933594 324.847656 C 252.25 325.164062 251.554688 325.488281 250.839844 325.820312 C 249.417969 326.476562 247.945312 327.160156 246.421875 327.859375 C 243.304688 329.082031 240.054688 330.542969 236.507812 331.679688 C 222.503906 336.757812 205.03125 339.894531 187.496094 339.96875 C 169.964844 339.894531 152.488281 336.757812 138.488281 331.679688 C 134.941406 330.542969 131.691406 329.082031 128.570312 327.859375 C 127.050781 327.160156 125.578125 326.476562 124.15625 325.820312 C 123.441406 325.488281 122.746094 325.164062 122.058594 324.847656 C 121.378906 324.523438 120.734375 324.160156 120.089844 323.828125 C 117.53125 322.46875 115.160156 321.28125 113.15625 320.023438 C 112.144531 319.417969 111.191406 318.847656 110.304688 318.316406 C 109.863281 318.050781 109.4375 317.796875 109.027344 317.550781 C 108.632812 317.285156 108.253906 317.03125 107.890625 316.789062 C 98.367188 310.542969 89.414062 303.453125 81.28125 295.488281 C 72.699219 286.917969 65.199219 277.316406 58.585938 267.136719 C 51.085938 255.363281 45.046875 242.582031 41.085938 229.109375 C 36.96875 215.683594 35.0625 201.589844 34.941406 187.496094 C 35.0625 173.402344 36.96875 159.3125 41.085938 145.882812 C 45.046875 132.414062 51.085938 119.632812 58.585938 107.859375 C 64.773438 98.28125 71.8125 89.277344 79.722656 81.085938 C 80.746094 79.96875 81.886719 78.96875 82.972656 77.910156 C 84.078125 76.875 85.148438 75.804688 86.277344 74.792969 L 89.707031 71.808594 L 91.417969 70.316406 L 93.199219 68.90625 L 96.75 66.066406 C 97.953125 65.148438 99.191406 64.277344 100.410156 63.378906 C 102.820312 61.535156 105.382812 59.914062 107.890625 58.207031 C 108.25 57.964844 108.632812 57.710938 109.027344 57.445312 C 109.4375 57.199219 109.859375 56.945312 110.304688 56.675781 C 111.1875 56.148438 112.140625 55.578125 113.15625 54.972656 C 115.160156 53.714844 117.53125 52.527344 120.089844 51.167969 C 120.734375 50.835938 121.378906 50.472656 122.058594 50.148438 C 122.746094 49.828125 123.441406 49.503906 124.152344 49.175781 C 125.578125 48.519531 127.050781 47.835938 128.570312 47.132812 C 131.691406 45.914062 134.941406 44.449219 138.488281 43.316406 C 152.488281 38.238281 169.960938 35.101562 187.496094 35.027344 C 205.03125 35.101562 222.503906 38.238281 236.503906 43.316406 C 240.054688 44.449219 243.304688 45.914062 246.421875 47.132812 C 247.945312 47.835938 249.417969 48.519531 250.839844 49.175781 C 251.550781 49.503906 252.25 49.828125 252.933594 50.144531 C 253.613281 50.472656 254.257812 50.835938 254.902344 51.167969 C 257.460938 52.527344 259.835938 53.714844 261.835938 54.972656 C 262.851562 55.578125 263.804688 56.148438 264.6875 56.675781 C 265.132812 56.941406 265.558594 57.199219 265.964844 57.445312 C 266.363281 57.710938 266.742188 57.964844 267.101562 58.207031 C 276.628906 64.449219 285.578125 71.542969 293.714844 79.507812 C 302.292969 88.078125 309.792969 97.679688 316.410156 107.859375 C 323.90625 119.628906 329.949219 132.414062 333.90625 145.882812 C 338.027344 159.3125 339.933594 173.402344 340.054688 187.496094 C 339.933594 201.589844 338.027344 215.683594 333.90625 229.109375 Z M 343.5625 187.394531 L 343.558594 187.382812 C 343.429688 172.992188 341.496094 158.59375 337.300781 144.863281 C 333.269531 131.089844 327.09375 118.019531 319.398438 106.011719 L 315.695312 100.449219 C 315.695312 100.449219 314.625 98.953125 313.023438 96.710938 C 311.476562 94.421875 309.113281 91.597656 306.855469 88.699219 C 304.421875 85.941406 302.089844 83.097656 300.128906 81.15625 C 298.222656 79.167969 296.949219 77.839844 296.949219 77.839844 C 296.949219 77.839844 296.628906 77.511719 296.050781 76.957031 C 295.472656 76.398438 294.648438 75.597656 293.65625 74.644531 C 291.722656 72.671875 288.917969 70.300781 286.164062 67.867188 C 284.75 66.691406 283.296875 65.570312 281.957031 64.488281 C 281.28125 63.953125 280.628906 63.433594 280.011719 62.941406 C 279.371094 62.480469 278.765625 62.042969 278.207031 61.640625 C 275.972656 60.027344 274.480469 58.953125 274.480469 58.953125 C 274.480469 58.953125 274.15625 58.6875 273.632812 58.347656 C 273.113281 58.003906 272.417969 57.539062 271.726562 57.074219 C 270.339844 56.144531 268.953125 55.21875 268.953125 55.21875 C 268.582031 54.96875 268.195312 54.707031 267.792969 54.433594 C 267.375 54.179688 266.941406 53.917969 266.488281 53.644531 C 265.582031 53.097656 264.609375 52.515625 263.574219 51.894531 C 261.523438 50.601562 259.101562 49.382812 256.484375 47.988281 C 255.824219 47.648438 255.164062 47.277344 254.46875 46.941406 C 253.765625 46.613281 253.054688 46.28125 252.328125 45.941406 C 250.871094 45.269531 249.363281 44.570312 247.804688 43.847656 C 244.617188 42.59375 241.289062 41.101562 237.660156 39.929688 C 223.332031 34.726562 205.4375 31.503906 187.496094 31.433594 C 169.554688 31.503906 151.664062 34.726562 137.335938 39.933594 C 133.707031 41.101562 130.378906 42.597656 127.1875 43.851562 C 125.628906 44.570312 124.125 45.269531 122.667969 45.945312 C 121.941406 46.28125 121.226562 46.617188 120.527344 46.941406 C 119.828125 47.277344 119.167969 47.648438 118.511719 47.988281 C 115.890625 49.382812 113.46875 50.601562 111.421875 51.894531 C 110.382812 52.515625 109.410156 53.101562 108.503906 53.644531 C 108.054688 53.917969 107.617188 54.179688 107.203125 54.433594 C 106.796875 54.707031 106.410156 54.96875 106.039062 55.21875 C 106.039062 55.21875 104.652344 56.144531 103.265625 57.074219 C 102.574219 57.539062 101.882812 58.003906 101.363281 58.351562 C 100.835938 58.6875 100.511719 58.953125 100.511719 58.953125 C 100.511719 58.953125 99.023438 60.027344 96.789062 61.640625 C 96.226562 62.042969 95.621094 62.480469 94.984375 62.941406 C 94.363281 63.433594 93.714844 63.953125 93.039062 64.488281 C 91.695312 65.570312 90.242188 66.691406 88.832031 67.867188 C 86.078125 70.300781 83.273438 72.671875 81.339844 74.644531 C 80.347656 75.597656 79.523438 76.398438 78.945312 76.957031 C 78.363281 77.511719 78.042969 77.839844 78.042969 77.839844 C 78.042969 77.839844 76.773438 79.167969 74.867188 81.15625 C 72.90625 83.097656 70.570312 85.941406 68.140625 88.699219 C 65.882812 91.597656 63.515625 94.421875 61.972656 96.710938 C 60.367188 98.957031 59.296875 100.453125 59.296875 100.453125 L 55.597656 106.011719 C 47.898438 118.019531 41.722656 131.09375 37.691406 144.863281 C 33.5 158.59375 31.5625 172.992188 31.4375 187.382812 L 31.433594 187.394531 L 31.433594 187.601562 L 31.4375 187.613281 C 31.5625 202.003906 33.5 216.402344 37.691406 230.132812 C 41.722656 243.902344 47.898438 256.976562 55.597656 268.980469 L 59.296875 274.542969 C 59.296875 274.542969 60.367188 276.039062 61.972656 278.285156 C 63.515625 280.574219 65.882812 283.394531 68.140625 286.296875 C 70.570312 289.054688 72.90625 291.898438 74.867188 293.835938 C 76.773438 295.828125 78.042969 297.152344 78.042969 297.152344 C 78.042969 297.152344 78.363281 297.480469 78.945312 298.039062 C 79.523438 298.597656 80.347656 299.394531 81.339844 300.351562 C 83.273438 302.320312 86.078125 304.695312 88.832031 307.128906 C 90.242188 308.300781 91.695312 309.425781 93.039062 310.507812 C 93.714844 311.042969 94.363281 311.558594 94.984375 312.050781 C 95.621094 312.515625 96.226562 312.949219 96.789062 313.351562 C 99.023438 314.96875 100.511719 316.042969 100.511719 316.042969 C 100.511719 316.042969 100.835938 316.304688 101.363281 316.644531 C 101.882812 316.992188 102.574219 317.457031 103.265625 317.921875 C 104.652344 318.847656 106.039062 319.777344 106.039062 319.777344 C 106.410156 320.027344 106.796875 320.289062 107.203125 320.5625 C 107.621094 320.816406 108.054688 321.078125 108.507812 321.351562 C 109.410156 321.894531 110.386719 322.480469 111.421875 323.101562 C 113.46875 324.394531 115.894531 325.613281 118.511719 327.007812 C 119.171875 327.347656 119.832031 327.71875 120.527344 328.054688 C 121.226562 328.378906 121.941406 328.714844 122.667969 329.050781 C 124.125 329.726562 125.632812 330.425781 127.1875 331.144531 C 130.378906 332.398438 133.707031 333.894531 137.335938 335.0625 C 151.664062 340.265625 169.554688 343.492188 187.496094 343.5625 C 205.4375 343.492188 223.332031 340.265625 237.660156 335.0625 C 241.289062 333.894531 244.617188 332.398438 247.808594 331.144531 C 249.363281 330.425781 250.871094 329.726562 252.328125 329.050781 C 253.054688 328.710938 253.769531 328.378906 254.46875 328.054688 C 255.164062 327.71875 255.824219 327.347656 256.484375 327.007812 C 259.101562 325.613281 261.527344 324.394531 263.574219 323.101562 C 264.609375 322.480469 265.582031 321.894531 266.488281 321.351562 C 266.941406 321.078125 267.375 320.8125 267.792969 320.5625 C 268.199219 320.289062 268.585938 320.027344 268.957031 319.777344 C 268.957031 319.777344 270.339844 318.847656 271.726562 317.921875 C 272.421875 317.457031 273.113281 316.992188 273.632812 316.644531 C 274.15625 316.304688 274.480469 316.042969 274.480469 316.042969 C 274.480469 316.042969 275.972656 314.96875 278.207031 313.351562 C 278.765625 312.949219 279.371094 312.515625 280.011719 312.050781 C 280.628906 311.558594 281.28125 311.042969 281.957031 310.507812 C 283.296875 309.425781 284.75 308.300781 286.164062 307.128906 C 288.917969 304.695312 291.722656 302.320312 293.65625 300.351562 C 294.648438 299.394531 295.472656 298.597656 296.050781 298.039062 C 296.628906 297.480469 296.949219 297.152344 296.949219 297.152344 C 296.949219 297.152344 298.222656 295.828125 300.128906 293.835938 C 302.089844 291.898438 304.421875 289.054688 306.855469 286.296875 C 309.113281 283.394531 311.480469 280.574219 313.023438 278.285156 C 314.628906 276.039062 315.695312 274.542969 315.695312 274.542969 L 319.398438 268.980469 C 327.09375 256.976562 333.269531 243.902344 337.300781 230.132812 C 341.496094 216.402344 343.429688 202.003906 343.558594 187.613281 L 343.5625 187.601562 L 343.5625 187.394531 " fill-opacity="1" fill-rule="nonzero"/></g><g clip-path="url(#a8904118b6)"><path fill="#ffffff" d="M 218.613281 132.898438 C 218.613281 116.570312 205.328125 103.289062 189.003906 103.289062 C 174.882812 103.289062 163.65625 110.320312 158.882812 121.117188 L 173.585938 121.117188 C 174.628906 121.117188 175.476562 121.964844 175.476562 123.003906 C 175.476562 124.046875 174.628906 124.894531 173.585938 124.894531 L 157.527344 124.894531 C 156.785156 127.515625 156.386719 130.308594 156.386719 133.242188 L 156.386719 135.058594 L 172.824219 135.058594 C 173.867188 135.058594 174.710938 135.90625 174.710938 136.949219 C 174.710938 137.988281 173.867188 138.835938 172.824219 138.835938 L 156.386719 138.835938 L 156.386719 147.394531 L 172.824219 147.394531 C 173.867188 147.394531 174.710938 148.242188 174.710938 149.285156 C 174.710938 150.328125 173.867188 151.171875 172.824219 151.171875 L 156.386719 151.171875 L 156.386719 164.675781 L 218.613281 164.675781 L 218.613281 132.898438 " fill-opacity="1" fill-rule="nonzero"/></g><path fill="#ffffff" d="M 218.613281 168.453125 L 156.386719 168.453125 L 156.386719 173.117188 L 218.613281 173.117188 L 218.613281 168.453125 " fill-opacity="1" fill-rule="nonzero"/><path fill="#ffffff" d="M 191.425781 214.101562 C 202.554688 214.101562 211.605469 205.046875 211.605469 193.921875 L 211.605469 183.171875 C 211.605469 182.128906 212.449219 181.285156 213.492188 181.285156 C 214.539062 181.285156 215.382812 182.128906 215.382812 183.171875 L 215.382812 193.921875 C 215.382812 207.128906 204.636719 217.878906 191.425781 217.878906 C 190.382812 217.878906 189.539062 217.03125 189.539062 215.988281 C 189.539062 214.945312 190.382812 214.101562 191.425781 214.101562 Z M 183.574219 221.105469 L 191.425781 221.105469 C 206.417969 221.105469 218.613281 208.914062 218.613281 193.921875 L 218.613281 176.894531 L 156.386719 176.894531 L 156.386719 193.921875 C 156.386719 208.914062 168.582031 221.105469 183.574219 221.105469 " fill-opacity="1" fill-rule="nonzero"/><g clip-path="url(#a17df7fd7e)"><path fill="#ffffff" d="M 294.511719 166.789062 L 284.359375 166.789062 C 283.457031 166.789062 282.683594 167.425781 282.507812 168.308594 L 278.867188 186.636719 L 271.722656 143.121094 C 271.484375 141.664062 270.433594 141.003906 269.496094 140.996094 C 269.488281 140.996094 269.480469 140.996094 269.476562 140.996094 C 268.546875 140.996094 267.5 141.628906 267.238281 143.054688 L 260.339844 180.402344 L 255.519531 158.820312 C 255.273438 157.644531 254.421875 156.867188 253.355469 156.835938 C 252.5 156.800781 251.460938 157.363281 251.144531 158.542969 L 246.113281 173.625 C 246.101562 173.667969 246.089844 173.703125 246.078125 173.738281 L 229.785156 173.660156 C 229.785156 173.660156 229.78125 173.660156 229.777344 173.660156 C 229.648438 173.660156 229.519531 173.671875 229.398438 173.695312 C 229.339844 173.707031 229.285156 173.734375 229.226562 173.75 C 229.164062 173.769531 229.101562 173.78125 229.042969 173.804688 C 228.992188 173.828125 228.945312 173.863281 228.890625 173.890625 C 228.835938 173.917969 228.777344 173.945312 228.722656 173.980469 C 228.671875 174.015625 228.632812 174.054688 228.585938 174.09375 C 228.539062 174.132812 228.488281 174.167969 228.445312 174.210938 C 228.402344 174.253906 228.367188 174.304688 228.328125 174.351562 C 228.289062 174.398438 228.246094 174.441406 228.214844 174.488281 C 228.179688 174.539062 228.15625 174.597656 228.125 174.648438 C 228.097656 174.703125 228.0625 174.753906 228.039062 174.808594 C 228.015625 174.867188 228 174.925781 227.984375 174.988281 C 227.964844 175.046875 227.941406 175.101562 227.929688 175.164062 C 227.917969 175.222656 227.917969 175.285156 227.910156 175.347656 C 227.902344 175.410156 227.890625 175.472656 227.890625 175.539062 L 227.890625 194.46875 C 227.890625 214.078125 211.933594 230.03125 192.324219 230.03125 L 182.675781 230.03125 C 163.066406 230.03125 147.109375 214.078125 147.109375 194.46875 L 147.109375 175.539062 C 147.109375 175.472656 147.097656 175.410156 147.089844 175.347656 C 147.082031 175.285156 147.082031 175.222656 147.070312 175.164062 C 147.058594 175.101562 147.035156 175.046875 147.015625 174.988281 C 146.996094 174.925781 146.984375 174.867188 146.960938 174.808594 C 146.9375 174.753906 146.902344 174.703125 146.875 174.648438 C 146.84375 174.597656 146.820312 174.539062 146.785156 174.488281 C 146.753906 174.441406 146.710938 174.398438 146.671875 174.351562 C 146.632812 174.304688 146.601562 174.253906 146.554688 174.210938 C 146.511719 174.167969 146.460938 174.132812 146.414062 174.09375 C 146.367188 174.054688 146.324219 174.015625 146.277344 173.980469 C 146.222656 173.945312 146.164062 173.917969 146.109375 173.890625 C 146.058594 173.863281 146.011719 173.828125 145.957031 173.804688 C 145.898438 173.78125 145.835938 173.769531 145.773438 173.75 C 145.714844 173.734375 145.660156 173.707031 145.601562 173.695312 C 145.480469 173.671875 145.351562 173.660156 145.222656 173.660156 C 145.21875 173.660156 145.214844 173.660156 145.214844 173.660156 L 128.921875 173.738281 C 128.902344 173.679688 128.878906 173.605469 128.855469 173.519531 L 123.886719 158.648438 C 123.539062 157.359375 122.488281 156.816406 121.644531 156.835938 C 120.578125 156.867188 119.726562 157.644531 119.488281 158.796875 L 114.660156 180.402344 L 107.761719 143.058594 C 107.5 141.617188 106.425781 141.042969 105.503906 140.996094 C 104.570312 141.003906 103.515625 141.664062 103.277344 143.117188 L 96.132812 186.636719 L 92.492188 168.308594 C 92.316406 167.425781 91.542969 166.789062 90.640625 166.789062 L 80.488281 166.789062 C 79.445312 166.789062 78.597656 167.636719 78.597656 168.679688 C 78.597656 169.71875 79.445312 170.566406 80.488281 170.566406 L 89.089844 170.566406 L 93.742188 193.976562 C 94.089844 195.738281 95.304688 196.363281 96.25 196.363281 C 96.261719 196.363281 96.273438 196.363281 96.285156 196.363281 C 97.25 196.347656 98.480469 195.675781 98.78125 193.839844 L 105.613281 152.210938 L 112.027344 186.953125 C 112.355469 188.734375 113.574219 189.382812 114.519531 189.394531 C 115.445312 189.394531 116.675781 188.796875 117.039062 187.074219 L 121.996094 164.894531 L 125.242188 174.613281 C 125.726562 176.40625 126.917969 177.515625 128.367188 177.515625 L 143.332031 177.445312 L 143.332031 194.46875 C 143.332031 215.015625 159.171875 231.921875 179.277344 233.652344 L 179.277344 267.933594 L 156.996094 267.933594 C 155.953125 267.933594 155.105469 268.78125 155.105469 269.824219 C 155.105469 270.867188 155.953125 271.710938 156.996094 271.710938 L 220.5 271.710938 C 221.546875 271.710938 222.390625 270.867188 222.390625 269.824219 C 222.390625 268.78125 221.546875 267.933594 220.5 267.933594 L 195.722656 267.933594 L 195.722656 233.652344 C 215.828125 231.921875 231.667969 215.015625 231.667969 194.46875 L 231.667969 177.445312 L 246.644531 177.515625 C 248.078125 177.515625 249.277344 176.40625 249.726562 174.714844 L 253.003906 164.894531 L 257.957031 187.050781 C 258.316406 188.78125 259.523438 189.394531 260.453125 189.394531 C 260.464844 189.394531 260.472656 189.394531 260.480469 189.394531 C 261.421875 189.382812 262.640625 188.738281 262.972656 186.953125 L 269.386719 152.210938 L 276.21875 193.839844 C 276.519531 195.675781 277.75 196.347656 278.714844 196.363281 C 278.726562 196.363281 278.738281 196.363281 278.75 196.363281 C 279.695312 196.363281 280.910156 195.738281 281.257812 193.972656 L 285.910156 170.566406 L 294.511719 170.566406 C 295.554688 170.566406 296.402344 169.71875 296.402344 168.679688 C 296.402344 167.636719 295.554688 166.789062 294.511719 166.789062 " fill-opacity="1" fill-rule="nonzero"/></g><g fill="#ffffff" fill-opacity="1"><g transform="translate(83.143959, 87.549843)"><g><path d="M -1.28125 -5.59375 C -0.945312 -5.90625 -0.640625 -6.054688 -0.359375 -6.046875 C 0.691406 -6.015625 1.640625 -6.195312 2.484375 -6.59375 C 3.328125 -7 4.128906 -7.554688 4.890625 -8.265625 C 5.640625 -8.972656 6.085938 -9.691406 6.234375 -10.421875 C 6.378906 -11.160156 6.207031 -11.789062 5.71875 -12.3125 L 5.6875 -12.359375 C 5.457031 -12.597656 5.207031 -12.773438 4.9375 -12.890625 C 4.664062 -13.015625 4.332031 -13.050781 3.9375 -13 C 3.539062 -12.957031 3.070312 -12.820312 2.53125 -12.59375 C 2 -12.363281 1.332031 -12.019531 0.53125 -11.5625 C -0.363281 -11.039062 -1.203125 -10.617188 -1.984375 -10.296875 C -2.773438 -9.972656 -3.515625 -9.785156 -4.203125 -9.734375 C -4.890625 -9.691406 -5.539062 -9.796875 -6.15625 -10.046875 C -6.769531 -10.296875 -7.378906 -10.742188 -7.984375 -11.390625 L -8.015625 -11.421875 C -8.578125 -12.015625 -8.96875 -12.671875 -9.1875 -13.390625 C -9.414062 -14.117188 -9.488281 -14.851562 -9.40625 -15.59375 C -9.320312 -16.34375 -9.078125 -17.085938 -8.671875 -17.828125 C -8.273438 -18.566406 -7.734375 -19.257812 -7.046875 -19.90625 C -6.171875 -20.726562 -5.269531 -21.363281 -4.34375 -21.8125 C -3.425781 -22.269531 -2.453125 -22.582031 -1.421875 -22.75 C -1.191406 -22.800781 -0.945312 -22.789062 -0.6875 -22.71875 C -0.425781 -22.65625 -0.1875 -22.507812 0.03125 -22.28125 C 0.320312 -21.957031 0.457031 -21.582031 0.4375 -21.15625 C 0.414062 -20.726562 0.242188 -20.363281 -0.078125 -20.0625 C -0.296875 -19.851562 -0.5625 -19.710938 -0.875 -19.640625 C -1.757812 -19.453125 -2.535156 -19.210938 -3.203125 -18.921875 C -3.878906 -18.628906 -4.5 -18.222656 -5.0625 -17.703125 C -5.769531 -17.035156 -6.171875 -16.359375 -6.265625 -15.671875 C -6.367188 -14.984375 -6.203125 -14.40625 -5.765625 -13.9375 L -5.734375 -13.890625 C -5.484375 -13.640625 -5.21875 -13.445312 -4.9375 -13.3125 C -4.65625 -13.1875 -4.3125 -13.160156 -3.90625 -13.234375 C -3.507812 -13.304688 -3.023438 -13.460938 -2.453125 -13.703125 C -1.890625 -13.953125 -1.195312 -14.316406 -0.375 -14.796875 C 0.53125 -15.304688 1.367188 -15.703125 2.140625 -15.984375 C 2.921875 -16.273438 3.644531 -16.429688 4.3125 -16.453125 C 4.988281 -16.484375 5.617188 -16.378906 6.203125 -16.140625 C 6.796875 -15.898438 7.363281 -15.484375 7.90625 -14.890625 L 7.953125 -14.84375 C 8.554688 -14.195312 8.972656 -13.5 9.203125 -12.75 C 9.441406 -12.007812 9.507812 -11.253906 9.40625 -10.484375 C 9.3125 -9.710938 9.046875 -8.953125 8.609375 -8.203125 C 8.171875 -7.453125 7.585938 -6.738281 6.859375 -6.0625 C 5.890625 -5.144531 4.835938 -4.421875 3.703125 -3.890625 C 2.566406 -3.367188 1.328125 -3.035156 -0.015625 -2.890625 C -0.566406 -2.835938 -1.019531 -3 -1.375 -3.375 C -1.675781 -3.695312 -1.816406 -4.070312 -1.796875 -4.5 C -1.773438 -4.9375 -1.601562 -5.300781 -1.28125 -5.59375 Z M -1.28125 -5.59375 "/></g></g></g><g fill="#ffffff" fill-opacity="1"><g transform="translate(98.794183, 73.038843)"><g><path d="M -1.015625 -22.59375 C 0.210938 -23.40625 1.476562 -23.929688 2.78125 -24.171875 C 4.09375 -24.421875 5.351562 -24.410156 6.5625 -24.140625 C 7.78125 -23.878906 8.921875 -23.382812 9.984375 -22.65625 C 11.046875 -21.9375 11.945312 -21.015625 12.6875 -19.890625 L 12.71875 -19.859375 C 13.457031 -18.742188 13.953125 -17.550781 14.203125 -16.28125 C 14.460938 -15.007812 14.46875 -13.753906 14.21875 -12.515625 C 13.96875 -11.273438 13.476562 -10.097656 12.75 -8.984375 C 12.03125 -7.867188 11.054688 -6.90625 9.828125 -6.09375 C 8.609375 -5.28125 7.34375 -4.753906 6.03125 -4.515625 C 4.71875 -4.285156 3.453125 -4.300781 2.234375 -4.5625 C 1.015625 -4.832031 -0.125 -5.328125 -1.1875 -6.046875 C -2.25 -6.765625 -3.148438 -7.679688 -3.890625 -8.796875 L -3.921875 -8.859375 C -4.660156 -9.972656 -5.15625 -11.160156 -5.40625 -12.421875 C -5.65625 -13.691406 -5.65625 -14.945312 -5.40625 -16.1875 C -5.15625 -17.425781 -4.664062 -18.597656 -3.9375 -19.703125 C -3.21875 -20.816406 -2.242188 -21.78125 -1.015625 -22.59375 Z M 8.15625 -8.71875 C 8.945312 -9.238281 9.570312 -9.863281 10.03125 -10.59375 C 10.5 -11.332031 10.800781 -12.101562 10.9375 -12.90625 C 11.082031 -13.71875 11.0625 -14.550781 10.875 -15.40625 C 10.6875 -16.269531 10.335938 -17.085938 9.828125 -17.859375 L 9.796875 -17.921875 C 9.285156 -18.691406 8.664062 -19.332031 7.9375 -19.84375 C 7.21875 -20.363281 6.453125 -20.71875 5.640625 -20.90625 C 4.828125 -21.09375 3.988281 -21.117188 3.125 -20.984375 C 2.269531 -20.859375 1.441406 -20.53125 0.640625 -20 C -0.148438 -19.476562 -0.773438 -18.847656 -1.234375 -18.109375 C -1.703125 -17.378906 -2 -16.601562 -2.125 -15.78125 C -2.257812 -14.957031 -2.234375 -14.117188 -2.046875 -13.265625 C -1.867188 -12.410156 -1.523438 -11.597656 -1.015625 -10.828125 L -0.984375 -10.796875 C -0.472656 -10.015625 0.140625 -9.367188 0.859375 -8.859375 C 1.578125 -8.347656 2.34375 -7.992188 3.15625 -7.796875 C 3.96875 -7.597656 4.804688 -7.570312 5.671875 -7.71875 C 6.546875 -7.863281 7.375 -8.195312 8.15625 -8.71875 Z M 8.15625 -8.71875 "/></g></g></g><g fill="#ffffff" fill-opacity="1"><g transform="translate(121.521298, 58.556419)"><g><path d="M -4.0625 -19.171875 C -3.632812 -19.359375 -3.207031 -19.367188 -2.78125 -19.203125 C -2.363281 -19.035156 -2.066406 -18.738281 -1.890625 -18.3125 L 1.796875 -9.734375 C 2.515625 -8.054688 3.4375 -6.972656 4.5625 -6.484375 C 5.6875 -5.992188 6.957031 -6.050781 8.375 -6.65625 C 9.75 -7.238281 10.648438 -8.101562 11.078125 -9.25 C 11.515625 -10.40625 11.390625 -11.789062 10.703125 -13.40625 L 6.953125 -22.109375 C 6.773438 -22.535156 6.769531 -22.957031 6.9375 -23.375 C 7.113281 -23.800781 7.425781 -24.109375 7.875 -24.296875 C 8.300781 -24.484375 8.722656 -24.492188 9.140625 -24.328125 C 9.566406 -24.160156 9.867188 -23.863281 10.046875 -23.4375 L 13.71875 -14.890625 C 14.28125 -13.585938 14.59375 -12.363281 14.65625 -11.21875 C 14.71875 -10.082031 14.566406 -9.046875 14.203125 -8.109375 C 13.835938 -7.171875 13.257812 -6.335938 12.46875 -5.609375 C 11.6875 -4.890625 10.722656 -4.285156 9.578125 -3.796875 C 8.429688 -3.304688 7.328125 -3.023438 6.265625 -2.953125 C 5.210938 -2.878906 4.21875 -3.023438 3.28125 -3.390625 C 2.351562 -3.765625 1.507812 -4.359375 0.75 -5.171875 C -0.0078125 -5.984375 -0.660156 -7.019531 -1.203125 -8.28125 L -4.953125 -16.984375 C -5.128906 -17.410156 -5.128906 -17.832031 -4.953125 -18.25 C -4.785156 -18.675781 -4.488281 -18.984375 -4.0625 -19.171875 Z M -4.0625 -19.171875 "/></g></g></g><g fill="#ffffff" fill-opacity="1"><g transform="translate(144.119784, 49.163994)"><g><path d="M 2.046875 -2.015625 L -1.65625 -17.59375 C -1.757812 -18.050781 -1.691406 -18.476562 -1.453125 -18.875 C -1.210938 -19.269531 -0.863281 -19.519531 -0.40625 -19.625 L -0.0625 -19.703125 C 0.34375 -19.804688 0.691406 -19.800781 0.984375 -19.6875 C 1.273438 -19.570312 1.570312 -19.394531 1.875 -19.15625 L 14 -9.34375 L 11.296875 -20.765625 C 11.191406 -21.191406 11.253906 -21.597656 11.484375 -21.984375 C 11.722656 -22.367188 12.066406 -22.613281 12.515625 -22.71875 C 12.972656 -22.832031 13.390625 -22.769531 13.765625 -22.53125 C 14.148438 -22.289062 14.394531 -21.957031 14.5 -21.53125 L 18.203125 -5.90625 C 18.316406 -5.457031 18.257812 -5.039062 18.03125 -4.65625 C 17.8125 -4.269531 17.472656 -4.023438 17.015625 -3.921875 L 16.875 -3.890625 C 16.488281 -3.796875 16.144531 -3.804688 15.84375 -3.921875 C 15.539062 -4.035156 15.238281 -4.21875 14.9375 -4.46875 L 2.453125 -14.5625 L 5.25 -2.78125 C 5.351562 -2.34375 5.285156 -1.929688 5.046875 -1.546875 C 4.816406 -1.160156 4.476562 -0.914062 4.03125 -0.8125 C 3.570312 -0.695312 3.148438 -0.757812 2.765625 -1 C 2.390625 -1.238281 2.148438 -1.578125 2.046875 -2.015625 Z M 2.046875 -2.015625 "/></g></g></g><g fill="#ffffff" fill-opacity="1"><g transform="translate(168.860837, 43.6467)"><g><path d="M 1.453125 -17.5 C 1.421875 -17.976562 1.554688 -18.390625 1.859375 -18.734375 C 2.171875 -19.078125 2.5625 -19.257812 3.03125 -19.28125 L 8.4375 -19.59375 C 9.945312 -19.6875 11.332031 -19.53125 12.59375 -19.125 C 13.863281 -18.71875 14.96875 -18.113281 15.90625 -17.3125 C 16.851562 -16.507812 17.609375 -15.546875 18.171875 -14.421875 C 18.734375 -13.296875 19.050781 -12.0625 19.125 -10.71875 L 19.140625 -10.671875 C 19.210938 -9.328125 19.035156 -8.0625 18.609375 -6.875 C 18.179688 -5.6875 17.546875 -4.640625 16.703125 -3.734375 C 15.859375 -2.828125 14.832031 -2.09375 13.625 -1.53125 C 12.414062 -0.96875 11.054688 -0.640625 9.546875 -0.546875 L 4.140625 -0.234375 C 3.671875 -0.210938 3.257812 -0.351562 2.90625 -0.65625 C 2.5625 -0.96875 2.378906 -1.359375 2.359375 -1.828125 Z M 5.625 -3.390625 L 9.375 -3.59375 C 10.375 -3.65625 11.273438 -3.867188 12.078125 -4.234375 C 12.878906 -4.609375 13.546875 -5.09375 14.078125 -5.6875 C 14.609375 -6.28125 15.007812 -6.984375 15.28125 -7.796875 C 15.5625 -8.609375 15.675781 -9.476562 15.625 -10.40625 L 15.625 -10.46875 C 15.570312 -11.394531 15.359375 -12.242188 14.984375 -13.015625 C 14.617188 -13.796875 14.132812 -14.453125 13.53125 -14.984375 C 12.9375 -15.523438 12.21875 -15.9375 11.375 -16.21875 C 10.539062 -16.5 9.625 -16.609375 8.625 -16.546875 L 4.875 -16.34375 Z M 5.625 -3.390625 "/></g></g></g><g fill="#ffffff" fill-opacity="1"><g transform="translate(194.07961, 42.659759)"><g><path d="M 3.390625 -4.640625 C 3.847656 -4.585938 4.164062 -4.445312 4.34375 -4.21875 C 5 -3.414062 5.753906 -2.828125 6.609375 -2.453125 C 7.460938 -2.078125 8.410156 -1.835938 9.453125 -1.734375 C 10.472656 -1.628906 11.3125 -1.765625 11.96875 -2.140625 C 12.625 -2.515625 12.988281 -3.050781 13.0625 -3.75 L 13.0625 -3.8125 C 13.09375 -4.132812 13.066406 -4.441406 12.984375 -4.734375 C 12.898438 -5.023438 12.707031 -5.300781 12.40625 -5.5625 C 12.113281 -5.832031 11.703125 -6.09375 11.171875 -6.34375 C 10.648438 -6.59375 9.953125 -6.867188 9.078125 -7.171875 C 8.097656 -7.503906 7.226562 -7.863281 6.46875 -8.25 C 5.707031 -8.632812 5.082031 -9.070312 4.59375 -9.5625 C 4.113281 -10.050781 3.765625 -10.609375 3.546875 -11.234375 C 3.328125 -11.867188 3.257812 -12.617188 3.34375 -13.484375 L 3.359375 -13.546875 C 3.441406 -14.359375 3.679688 -15.085938 4.078125 -15.734375 C 4.472656 -16.378906 4.976562 -16.910156 5.59375 -17.328125 C 6.21875 -17.753906 6.941406 -18.054688 7.765625 -18.234375 C 8.585938 -18.421875 9.46875 -18.46875 10.40625 -18.375 C 11.59375 -18.25 12.660156 -17.984375 13.609375 -17.578125 C 14.554688 -17.179688 15.4375 -16.65625 16.25 -16 C 16.445312 -15.863281 16.601562 -15.671875 16.71875 -15.421875 C 16.832031 -15.179688 16.875 -14.898438 16.84375 -14.578125 C 16.789062 -14.148438 16.597656 -13.800781 16.265625 -13.53125 C 15.929688 -13.269531 15.546875 -13.160156 15.109375 -13.203125 C 14.804688 -13.234375 14.523438 -13.34375 14.265625 -13.53125 C 13.535156 -14.09375 12.84375 -14.53125 12.1875 -14.84375 C 11.53125 -15.15625 10.816406 -15.347656 10.046875 -15.421875 C 9.078125 -15.523438 8.296875 -15.390625 7.703125 -15.015625 C 7.117188 -14.640625 6.796875 -14.132812 6.734375 -13.5 L 6.71875 -13.4375 C 6.6875 -13.082031 6.71875 -12.753906 6.8125 -12.453125 C 6.90625 -12.160156 7.113281 -11.882812 7.4375 -11.625 C 7.757812 -11.375 8.195312 -11.113281 8.75 -10.84375 C 9.3125 -10.582031 10.039062 -10.296875 10.9375 -9.984375 C 11.90625 -9.628906 12.75 -9.253906 13.46875 -8.859375 C 14.195312 -8.472656 14.789062 -8.03125 15.25 -7.53125 C 15.71875 -7.039062 16.050781 -6.492188 16.25 -5.890625 C 16.445312 -5.296875 16.503906 -4.597656 16.421875 -3.796875 L 16.421875 -3.734375 C 16.328125 -2.859375 16.078125 -2.082031 15.671875 -1.40625 C 15.265625 -0.738281 14.734375 -0.191406 14.078125 0.234375 C 13.429688 0.660156 12.679688 0.957031 11.828125 1.125 C 10.972656 1.289062 10.050781 1.320312 9.0625 1.21875 C 7.738281 1.070312 6.507812 0.742188 5.375 0.234375 C 4.238281 -0.273438 3.171875 -0.988281 2.171875 -1.90625 C 1.773438 -2.28125 1.609375 -2.726562 1.671875 -3.25 C 1.710938 -3.6875 1.898438 -4.035156 2.234375 -4.296875 C 2.566406 -4.566406 2.953125 -4.679688 3.390625 -4.640625 Z M 3.390625 -4.640625 "/></g></g></g><g fill="#ffffff" fill-opacity="1"><g transform="translate(215.361951, 45.088814)"><g><path d="M 16.078125 -15.78125 C 17.492188 -15.40625 18.65625 -14.898438 19.5625 -14.265625 C 20.46875 -13.640625 21.234375 -12.890625 21.859375 -12.015625 C 21.984375 -11.835938 22.078125 -11.625 22.140625 -11.375 C 22.210938 -11.125 22.210938 -10.847656 22.140625 -10.546875 C 22.015625 -10.097656 21.753906 -9.765625 21.359375 -9.546875 C 20.972656 -9.328125 20.550781 -9.28125 20.09375 -9.40625 C 19.6875 -9.507812 19.394531 -9.695312 19.21875 -9.96875 C 18.738281 -10.675781 18.179688 -11.265625 17.546875 -11.734375 C 16.910156 -12.210938 16.144531 -12.570312 15.25 -12.8125 C 14.375 -13.039062 13.519531 -13.085938 12.6875 -12.953125 C 11.851562 -12.816406 11.085938 -12.523438 10.390625 -12.078125 C 9.703125 -11.628906 9.097656 -11.050781 8.578125 -10.34375 C 8.054688 -9.632812 7.675781 -8.832031 7.4375 -7.9375 L 7.421875 -7.890625 C 7.179688 -6.992188 7.109375 -6.101562 7.203125 -5.21875 C 7.296875 -4.34375 7.53125 -3.539062 7.90625 -2.8125 C 8.289062 -2.082031 8.804688 -1.441406 9.453125 -0.890625 C 10.109375 -0.347656 10.875 0.0351562 11.75 0.265625 C 12.757812 0.535156 13.648438 0.617188 14.421875 0.515625 C 15.203125 0.410156 16.007812 0.148438 16.84375 -0.265625 C 16.988281 -0.335938 17.15625 -0.382812 17.34375 -0.40625 C 17.53125 -0.425781 17.722656 -0.410156 17.921875 -0.359375 C 18.316406 -0.253906 18.625 -0.015625 18.84375 0.359375 C 19.070312 0.742188 19.132812 1.132812 19.03125 1.53125 C 18.957031 1.789062 18.84375 2 18.6875 2.15625 C 18.539062 2.320312 18.375 2.457031 18.1875 2.5625 C 17.101562 3.09375 15.976562 3.4375 14.8125 3.59375 C 13.65625 3.757812 12.332031 3.640625 10.84375 3.234375 C 9.519531 2.878906 8.347656 2.300781 7.328125 1.5 C 6.304688 0.707031 5.488281 -0.222656 4.875 -1.296875 C 4.269531 -2.378906 3.882812 -3.5625 3.71875 -4.84375 C 3.550781 -6.125 3.644531 -7.421875 4 -8.734375 L 4.015625 -8.796875 C 4.367188 -10.117188 4.929688 -11.289062 5.703125 -12.3125 C 6.472656 -13.34375 7.398438 -14.175781 8.484375 -14.8125 C 9.566406 -15.457031 10.753906 -15.875 12.046875 -16.0625 C 13.347656 -16.25 14.691406 -16.15625 16.078125 -15.78125 Z M 16.078125 -15.78125 "/></g></g></g><g fill="#ffffff" fill-opacity="1"><g transform="translate(238.451794, 51.571373)"><g><path d="M 1.625 -0.8125 C 1.6875 -0.945312 1.863281 -1.148438 2.15625 -1.421875 L 15.203125 -12.8125 C 15.554688 -13.113281 15.9375 -13.300781 16.34375 -13.375 C 16.757812 -13.457031 17.179688 -13.398438 17.609375 -13.203125 L 17.765625 -13.125 C 18.179688 -12.925781 18.488281 -12.648438 18.6875 -12.296875 C 18.882812 -11.941406 18.988281 -11.53125 19 -11.0625 L 18.828125 6.265625 C 18.835938 6.535156 18.789062 6.78125 18.6875 7 C 18.5 7.40625 18.203125 7.679688 17.796875 7.828125 C 17.398438 7.984375 17 7.96875 16.59375 7.78125 C 15.90625 7.46875 15.570312 6.890625 15.59375 6.046875 L 15.65625 2.140625 L 7.25 -1.734375 L 4.25 0.9375 C 3.6875 1.457031 3.066406 1.5625 2.390625 1.25 C 1.992188 1.070312 1.71875 0.78125 1.5625 0.375 C 1.414062 -0.0195312 1.4375 -0.414062 1.625 -0.8125 Z M 15.75 -1.109375 L 15.921875 -9.5 L 9.65625 -3.90625 Z M 15.75 -1.109375 "/></g></g></g><g fill="#ffffff" fill-opacity="1"><g transform="translate(260.95789, 62.410162)"><g><path d="M 11.78125 -13.03125 C 12.039062 -13.425781 12.394531 -13.664062 12.84375 -13.75 C 13.300781 -13.832031 13.722656 -13.738281 14.109375 -13.46875 L 18.953125 -10.203125 C 19.890625 -9.566406 20.640625 -8.878906 21.203125 -8.140625 C 21.773438 -7.398438 22.164062 -6.617188 22.375 -5.796875 C 22.582031 -4.984375 22.609375 -4.15625 22.453125 -3.3125 C 22.296875 -2.476562 21.945312 -1.660156 21.40625 -0.859375 L 21.375 -0.828125 C 20.78125 0.0546875 20.085938 0.722656 19.296875 1.171875 C 18.503906 1.628906 17.664062 1.882812 16.78125 1.9375 C 15.90625 2 15.003906 1.890625 14.078125 1.609375 C 13.148438 1.328125 12.253906 0.890625 11.390625 0.296875 L 8.25 -1.828125 L 5.671875 1.984375 C 5.398438 2.378906 5.046875 2.617188 4.609375 2.703125 C 4.171875 2.785156 3.75 2.695312 3.34375 2.4375 C 2.957031 2.164062 2.71875 1.804688 2.625 1.359375 C 2.53125 0.921875 2.617188 0.503906 2.890625 0.109375 Z M 9.9375 -4.328125 L 13.15625 -2.140625 C 14.207031 -1.429688 15.21875 -1.128906 16.1875 -1.234375 C 17.164062 -1.347656 17.9375 -1.820312 18.5 -2.65625 L 18.53125 -2.703125 C 19.164062 -3.648438 19.332031 -4.566406 19.03125 -5.453125 C 18.738281 -6.335938 18.066406 -7.132812 17.015625 -7.84375 L 13.796875 -10.03125 Z M 9.9375 -4.328125 "/></g></g></g><g fill="#ffffff" fill-opacity="1"><g transform="translate(279.176572, 75.111747)"><g><path d="M 2.953125 0.4375 L 13.640625 -11.0625 C 13.960938 -11.414062 14.351562 -11.597656 14.8125 -11.609375 C 15.28125 -11.617188 15.6875 -11.46875 16.03125 -11.15625 L 24.15625 -3.59375 C 24.46875 -3.300781 24.628906 -2.953125 24.640625 -2.546875 C 24.648438 -2.148438 24.515625 -1.800781 24.234375 -1.5 C 23.941406 -1.175781 23.59375 -1.003906 23.1875 -0.984375 C 22.78125 -0.972656 22.421875 -1.113281 22.109375 -1.40625 L 15.203125 -7.828125 L 11.828125 -4.1875 L 17.84375 1.40625 C 18.144531 1.6875 18.296875 2.035156 18.296875 2.453125 C 18.304688 2.867188 18.171875 3.226562 17.890625 3.53125 C 17.609375 3.84375 17.265625 4 16.859375 4 C 16.453125 4.007812 16.097656 3.875 15.796875 3.59375 L 9.78125 -2 L 6.296875 1.75 L 13.3125 8.265625 C 13.613281 8.546875 13.769531 8.890625 13.78125 9.296875 C 13.800781 9.710938 13.664062 10.078125 13.375 10.390625 C 13.09375 10.691406 12.742188 10.847656 12.328125 10.859375 C 11.921875 10.878906 11.566406 10.75 11.265625 10.46875 L 3.03125 2.8125 C 2.6875 2.5 2.503906 2.109375 2.484375 1.640625 C 2.472656 1.179688 2.628906 0.78125 2.953125 0.4375 Z M 2.953125 0.4375 "/></g></g></g><g fill="#ffffff" fill-opacity="1"><g transform="translate(116.592345, 332.746443)"><g><path d="M 2.53125 -0.890625 L 7.578125 -12.765625 C 7.773438 -13.222656 8.101562 -13.546875 8.5625 -13.734375 C 9.03125 -13.929688 9.5 -13.929688 9.96875 -13.734375 L 18.40625 -10.140625 C 18.820312 -9.960938 19.113281 -9.664062 19.28125 -9.25 C 19.445312 -8.84375 19.441406 -8.429688 19.265625 -8.015625 C 19.085938 -7.585938 18.789062 -7.289062 18.375 -7.125 C 17.96875 -6.96875 17.554688 -6.976562 17.140625 -7.15625 L 10.34375 -10.046875 L 9.03125 -6.96875 L 14.84375 -4.5 C 15.269531 -4.320312 15.5625 -4.023438 15.71875 -3.609375 C 15.882812 -3.191406 15.878906 -2.773438 15.703125 -2.359375 C 15.523438 -1.929688 15.234375 -1.640625 14.828125 -1.484375 C 14.421875 -1.328125 14.003906 -1.335938 13.578125 -1.515625 L 7.765625 -3.984375 L 6.40625 -0.796875 L 13.3125 2.140625 C 13.726562 2.316406 14.019531 2.609375 14.1875 3.015625 C 14.363281 3.429688 14.359375 3.847656 14.171875 4.265625 C 13.992188 4.691406 13.695312 4.984375 13.28125 5.140625 C 12.875 5.304688 12.460938 5.300781 12.046875 5.125 L 3.5 1.484375 C 3.03125 1.285156 2.703125 0.953125 2.515625 0.484375 C 2.335938 0.0234375 2.34375 -0.429688 2.53125 -0.890625 Z M 2.53125 -0.890625 "/></g></g></g><g fill="#ffffff" fill-opacity="1"><g transform="translate(135.248582, 340.369826)"><g><path d="M 3.890625 -3.875 C 4.117188 -3.800781 4.300781 -3.707031 4.4375 -3.59375 C 4.570312 -3.488281 4.691406 -3.382812 4.796875 -3.28125 C 5.273438 -2.664062 5.8125 -2.132812 6.40625 -1.6875 C 7 -1.238281 7.679688 -0.90625 8.453125 -0.6875 C 9.179688 -0.476562 9.78125 -0.441406 10.25 -0.578125 C 10.726562 -0.722656 11.035156 -1.03125 11.171875 -1.5 L 11.1875 -1.546875 C 11.25 -1.773438 11.265625 -1.988281 11.234375 -2.1875 C 11.203125 -2.382812 11.09375 -2.597656 10.90625 -2.828125 C 10.71875 -3.054688 10.4375 -3.300781 10.0625 -3.5625 C 9.6875 -3.820312 9.191406 -4.128906 8.578125 -4.484375 C 7.828125 -4.929688 7.15625 -5.363281 6.5625 -5.78125 C 5.976562 -6.195312 5.515625 -6.648438 5.171875 -7.140625 C 4.828125 -7.628906 4.601562 -8.175781 4.5 -8.78125 C 4.40625 -9.382812 4.46875 -10.078125 4.6875 -10.859375 L 4.703125 -10.90625 C 4.910156 -11.632812 5.234375 -12.25 5.671875 -12.75 C 6.109375 -13.25 6.632812 -13.640625 7.25 -13.921875 C 7.863281 -14.210938 8.546875 -14.375 9.296875 -14.40625 C 10.054688 -14.4375 10.84375 -14.335938 11.65625 -14.109375 C 13.570312 -13.554688 15.117188 -12.601562 16.296875 -11.25 C 16.453125 -11.070312 16.578125 -10.84375 16.671875 -10.5625 C 16.765625 -10.289062 16.757812 -9.984375 16.65625 -9.640625 C 16.53125 -9.179688 16.257812 -8.84375 15.84375 -8.625 C 15.4375 -8.40625 15.003906 -8.363281 14.546875 -8.5 C 14.234375 -8.59375 13.960938 -8.757812 13.734375 -9 C 12.804688 -10.039062 11.800781 -10.71875 10.71875 -11.03125 C 10.039062 -11.226562 9.488281 -11.238281 9.0625 -11.0625 C 8.644531 -10.894531 8.378906 -10.617188 8.265625 -10.234375 L 8.265625 -10.1875 C 8.179688 -9.90625 8.160156 -9.660156 8.203125 -9.453125 C 8.253906 -9.242188 8.382812 -9.03125 8.59375 -8.8125 C 8.8125 -8.601562 9.125 -8.363281 9.53125 -8.09375 C 9.9375 -7.820312 10.453125 -7.492188 11.078125 -7.109375 C 11.828125 -6.660156 12.472656 -6.210938 13.015625 -5.765625 C 13.566406 -5.328125 14.003906 -4.859375 14.328125 -4.359375 C 14.660156 -3.867188 14.863281 -3.34375 14.9375 -2.78125 C 15.019531 -2.226562 14.957031 -1.601562 14.75 -0.90625 L 14.734375 -0.859375 C 14.515625 -0.0664062 14.171875 0.59375 13.703125 1.125 C 13.242188 1.65625 12.695312 2.050781 12.0625 2.3125 C 11.4375 2.582031 10.734375 2.722656 9.953125 2.734375 C 9.179688 2.753906 8.359375 2.640625 7.484375 2.390625 C 6.441406 2.085938 5.457031 1.632812 4.53125 1.03125 C 3.613281 0.425781 2.796875 -0.328125 2.078125 -1.234375 C 1.921875 -1.410156 1.816406 -1.632812 1.765625 -1.90625 C 1.710938 -2.175781 1.722656 -2.453125 1.796875 -2.734375 C 1.929688 -3.179688 2.195312 -3.515625 2.59375 -3.734375 C 3 -3.953125 3.429688 -4 3.890625 -3.875 Z M 3.890625 -3.875 "/></g></g></g><g fill="#ffffff" fill-opacity="1"><g transform="translate(153.995327, 345.49422)"><g><path d="M 3 -14.5625 C 3.070312 -15.007812 3.300781 -15.367188 3.6875 -15.640625 C 4.070312 -15.921875 4.488281 -16.023438 4.9375 -15.953125 L 15.421875 -14.265625 C 15.878906 -14.191406 16.242188 -13.960938 16.515625 -13.578125 C 16.785156 -13.203125 16.882812 -12.789062 16.8125 -12.34375 C 16.738281 -11.882812 16.515625 -11.519531 16.140625 -11.25 C 15.765625 -10.976562 15.347656 -10.878906 14.890625 -10.953125 L 11.4375 -11.515625 L 9.609375 -0.15625 C 9.523438 0.34375 9.28125 0.738281 8.875 1.03125 C 8.476562 1.320312 8.035156 1.429688 7.546875 1.359375 C 7.046875 1.273438 6.644531 1.03125 6.34375 0.625 C 6.039062 0.21875 5.929688 -0.234375 6.015625 -0.734375 L 7.84375 -12.09375 L 4.40625 -12.640625 C 3.957031 -12.710938 3.59375 -12.9375 3.3125 -13.3125 C 3.03125 -13.6875 2.925781 -14.101562 3 -14.5625 Z M 3 -14.5625 "/></g></g></g><g fill="#ffffff" fill-opacity="1"><g transform="translate(173.254967, 348.198482)"><g/></g></g><g fill="#ffffff" fill-opacity="1"><g transform="translate(184.45915, 348.912523)"><g><path d="M 1.859375 -3.59375 L 6.453125 -7.578125 C 6.960938 -8.015625 7.394531 -8.40625 7.75 -8.75 C 8.101562 -9.101562 8.390625 -9.429688 8.609375 -9.734375 C 8.828125 -10.046875 8.984375 -10.351562 9.078125 -10.65625 C 9.171875 -10.957031 9.210938 -11.28125 9.203125 -11.625 C 9.179688 -12.332031 8.960938 -12.863281 8.546875 -13.21875 C 8.128906 -13.570312 7.585938 -13.738281 6.921875 -13.71875 C 6.398438 -13.707031 5.945312 -13.578125 5.5625 -13.328125 C 5.175781 -13.078125 4.75 -12.703125 4.28125 -12.203125 C 4.15625 -12.078125 3.988281 -11.953125 3.78125 -11.828125 C 3.582031 -11.710938 3.34375 -11.648438 3.0625 -11.640625 C 2.601562 -11.628906 2.207031 -11.78125 1.875 -12.09375 C 1.539062 -12.40625 1.367188 -12.789062 1.359375 -13.25 C 1.335938 -13.675781 1.472656 -14.0625 1.765625 -14.40625 C 2.390625 -15.195312 3.113281 -15.816406 3.9375 -16.265625 C 4.757812 -16.710938 5.800781 -16.953125 7.0625 -16.984375 C 7.914062 -17.015625 8.695312 -16.914062 9.40625 -16.6875 C 10.125 -16.457031 10.734375 -16.128906 11.234375 -15.703125 C 11.742188 -15.273438 12.144531 -14.75 12.4375 -14.125 C 12.726562 -13.5 12.882812 -12.800781 12.90625 -12.03125 L 12.90625 -11.984375 C 12.925781 -11.285156 12.851562 -10.664062 12.6875 -10.125 C 12.53125 -9.582031 12.28125 -9.066406 11.9375 -8.578125 C 11.59375 -8.085938 11.15625 -7.59375 10.625 -7.09375 C 10.09375 -6.601562 9.46875 -6.0625 8.75 -5.46875 L 6.09375 -3.3125 L 11.859375 -3.46875 C 12.296875 -3.476562 12.671875 -3.332031 12.984375 -3.03125 C 13.304688 -2.738281 13.472656 -2.375 13.484375 -1.9375 C 13.492188 -1.488281 13.347656 -1.109375 13.046875 -0.796875 C 12.753906 -0.492188 12.390625 -0.335938 11.953125 -0.328125 L 2.984375 -0.078125 C 2.410156 -0.0664062 1.929688 -0.203125 1.546875 -0.484375 C 1.171875 -0.773438 0.976562 -1.195312 0.96875 -1.75 C 0.945312 -2.476562 1.242188 -3.09375 1.859375 -3.59375 Z M 1.859375 -3.59375 "/></g></g></g><g fill="#ffffff" fill-opacity="1"><g transform="translate(203.51486, 348.190947)"><g><path d="M 5.984375 -17.9375 C 7.054688 -18.101562 8.070312 -18.039062 9.03125 -17.75 C 10 -17.457031 10.851562 -16.984375 11.59375 -16.328125 C 12.34375 -15.671875 12.96875 -14.859375 13.46875 -13.890625 C 13.976562 -12.929688 14.328125 -11.851562 14.515625 -10.65625 L 14.515625 -10.609375 C 14.703125 -9.421875 14.695312 -8.285156 14.5 -7.203125 C 14.3125 -6.117188 13.957031 -5.148438 13.4375 -4.296875 C 12.914062 -3.441406 12.238281 -2.722656 11.40625 -2.140625 C 10.582031 -1.566406 9.628906 -1.195312 8.546875 -1.03125 C 7.460938 -0.863281 6.4375 -0.921875 5.46875 -1.203125 C 4.507812 -1.492188 3.65625 -1.972656 2.90625 -2.640625 C 2.15625 -3.304688 1.53125 -4.117188 1.03125 -5.078125 C 0.53125 -6.046875 0.191406 -7.125 0.015625 -8.3125 L 0 -8.359375 C -0.175781 -9.535156 -0.171875 -10.664062 0.015625 -11.75 C 0.203125 -12.84375 0.554688 -13.816406 1.078125 -14.671875 C 1.609375 -15.535156 2.285156 -16.253906 3.109375 -16.828125 C 3.941406 -17.398438 4.898438 -17.769531 5.984375 -17.9375 Z M 8.09375 -4.28125 C 8.632812 -4.363281 9.101562 -4.566406 9.5 -4.890625 C 9.894531 -5.210938 10.210938 -5.625 10.453125 -6.125 C 10.691406 -6.632812 10.84375 -7.21875 10.90625 -7.875 C 10.976562 -8.539062 10.957031 -9.242188 10.84375 -9.984375 L 10.828125 -10.03125 C 10.710938 -10.78125 10.519531 -11.457031 10.25 -12.0625 C 9.988281 -12.664062 9.660156 -13.175781 9.265625 -13.59375 C 8.878906 -14.007812 8.445312 -14.316406 7.96875 -14.515625 C 7.488281 -14.710938 6.976562 -14.769531 6.4375 -14.6875 C 5.90625 -14.601562 5.4375 -14.394531 5.03125 -14.0625 C 4.632812 -13.738281 4.316406 -13.328125 4.078125 -12.828125 C 3.847656 -12.328125 3.695312 -11.75 3.625 -11.09375 C 3.550781 -10.4375 3.570312 -9.734375 3.6875 -8.984375 L 3.6875 -8.9375 C 3.800781 -8.195312 3.992188 -7.519531 4.265625 -6.90625 C 4.535156 -6.289062 4.859375 -5.773438 5.234375 -5.359375 C 5.617188 -4.941406 6.050781 -4.632812 6.53125 -4.4375 C 7.019531 -4.25 7.539062 -4.195312 8.09375 -4.28125 Z M 8.09375 -4.28125 "/></g></g></g><g fill="#ffffff" fill-opacity="1"><g transform="translate(224.795783, 344.552925)"><g><path d="M 0.90625 -3.9375 L 4.375 -8.9375 C 4.757812 -9.488281 5.078125 -9.976562 5.328125 -10.40625 C 5.585938 -10.832031 5.785156 -11.21875 5.921875 -11.5625 C 6.054688 -11.914062 6.128906 -12.25 6.140625 -12.5625 C 6.160156 -12.875 6.125 -13.195312 6.03125 -13.53125 C 5.84375 -14.207031 5.5 -14.664062 5 -14.90625 C 4.507812 -15.15625 3.941406 -15.1875 3.296875 -15 C 2.796875 -14.863281 2.390625 -14.625 2.078125 -14.28125 C 1.773438 -13.945312 1.457031 -13.476562 1.125 -12.875 C 1.03125 -12.726562 0.898438 -12.570312 0.734375 -12.40625 C 0.566406 -12.238281 0.347656 -12.113281 0.078125 -12.03125 C -0.367188 -11.90625 -0.789062 -11.953125 -1.1875 -12.171875 C -1.582031 -12.390625 -1.84375 -12.71875 -1.96875 -13.15625 C -2.082031 -13.570312 -2.046875 -13.984375 -1.859375 -14.390625 C -1.453125 -15.304688 -0.90625 -16.082031 -0.21875 -16.71875 C 0.46875 -17.363281 1.414062 -17.859375 2.625 -18.203125 C 3.445312 -18.441406 4.226562 -18.535156 4.96875 -18.484375 C 5.71875 -18.441406 6.390625 -18.273438 6.984375 -17.984375 C 7.578125 -17.703125 8.09375 -17.296875 8.53125 -16.765625 C 8.96875 -16.234375 9.296875 -15.597656 9.515625 -14.859375 L 9.53125 -14.8125 C 9.71875 -14.144531 9.800781 -13.523438 9.78125 -12.953125 C 9.769531 -12.378906 9.65625 -11.8125 9.4375 -11.25 C 9.21875 -10.6875 8.910156 -10.101562 8.515625 -9.5 C 8.128906 -8.894531 7.660156 -8.210938 7.109375 -7.453125 L 5.09375 -4.71875 L 10.640625 -6.296875 C 11.054688 -6.421875 11.453125 -6.378906 11.828125 -6.171875 C 12.210938 -5.960938 12.46875 -5.644531 12.59375 -5.21875 C 12.707031 -4.789062 12.65625 -4.390625 12.4375 -4.015625 C 12.226562 -3.648438 11.914062 -3.40625 11.5 -3.28125 L 2.875 -0.8125 C 2.320312 -0.65625 1.820312 -0.671875 1.375 -0.859375 C 0.9375 -1.046875 0.644531 -1.40625 0.5 -1.9375 C 0.300781 -2.632812 0.4375 -3.300781 0.90625 -3.9375 Z M 0.90625 -3.9375 "/></g></g></g><g fill="#ffffff" fill-opacity="1"><g transform="translate(243.049864, 339.115514)"><g><path d="M -1.28125 -5.15625 C -1.425781 -5.507812 -1.488281 -5.859375 -1.46875 -6.203125 C -1.445312 -6.546875 -1.378906 -6.914062 -1.265625 -7.3125 L 2.09375 -17.78125 C 2.25 -18.300781 2.429688 -18.71875 2.640625 -19.03125 C 2.859375 -19.34375 3.210938 -19.601562 3.703125 -19.8125 C 4.148438 -20 4.59375 -20.003906 5.03125 -19.828125 C 5.46875 -19.660156 5.785156 -19.351562 5.984375 -18.90625 L 9.3125 -11.015625 L 10.109375 -11.359375 C 10.484375 -11.515625 10.863281 -11.515625 11.25 -11.359375 C 11.632812 -11.203125 11.90625 -10.941406 12.0625 -10.578125 C 12.226562 -10.203125 12.226562 -9.820312 12.0625 -9.4375 C 11.90625 -9.0625 11.640625 -8.796875 11.265625 -8.640625 L 10.46875 -8.296875 L 11.25 -6.46875 C 11.4375 -6.019531 11.4375 -5.578125 11.25 -5.140625 C 11.070312 -4.710938 10.757812 -4.40625 10.3125 -4.21875 C 9.851562 -4.019531 9.40625 -4.007812 8.96875 -4.1875 C 8.539062 -4.363281 8.234375 -4.675781 8.046875 -5.125 L 7.265625 -6.953125 L 1 -4.296875 C 0.550781 -4.097656 0.109375 -4.078125 -0.328125 -4.234375 C -0.773438 -4.398438 -1.09375 -4.707031 -1.28125 -5.15625 Z M 6.109375 -9.671875 L 4.109375 -14.421875 L 2.078125 -7.953125 Z M 6.109375 -9.671875 "/></g></g></g></svg>